<svg width="113" height="28" viewBox="0 0 113 28" fill="none" xmlns="http://www.w3.org/2000/svg">
<g clip-path="url(#clip0_530_280)">
<path d="M8.41949 12.5927L0 12.4897V15.2941L0.00518548 15.3026L3.33772 15.3401L3.33599 15.3375L8.28986 15.3979C8.89656 15.4583 9.21201 15.8419 9.34856 16.069C9.48511 16.297 9.67265 16.7563 9.4298 17.3092L7.09201 21.6149L5.51735 24.5128L8.03922 25.827L11.9871 18.5545C13.2679 15.8845 11.4124 12.7841 8.41949 12.591V12.5927Z" fill="#F28C3E"/>
<path d="M18.0636 12.5587C15.0681 12.7186 13.1789 15.7986 14.4286 18.4822L18.2918 25.7922L20.7652 24.387L19.2891 21.5953L16.9997 17.265C16.7638 16.7096 16.9565 16.2528 17.0956 16.0257C17.2348 15.7994 17.5546 15.4201 18.1621 15.3656L23.116 15.3597L26 15.3563V12.5493L18.0636 12.5595V12.5587Z" fill="#F28C3E"/>
<path d="M13.1437 12.3271C14.4798 12.3271 15.8151 11.7172 16.6594 10.4966L20.9314 3.60684L18.4199 2.2459L15.2274 7.44215L15.2161 7.43535L14.2707 8.95961C13.9103 9.44529 13.4125 9.5193 13.1437 9.5193C12.8749 9.5193 12.3788 9.44529 12.0184 8.96216L9.45161 4.79171H9.4568L7.76892 2.04346L5.29199 3.45033L9.62705 10.4949C10.4706 11.7155 11.8067 12.3254 13.1428 12.3254L13.1437 12.3271Z" fill="#F28C3E"/>
<path d="M3.34222 10.6846C4.53359 10.6846 5.49938 9.73409 5.49938 8.56155C5.49938 7.38901 4.53359 6.43848 3.34222 6.43848C2.15085 6.43848 1.18506 7.38901 1.18506 8.56155C1.18506 9.73409 2.15085 10.6846 3.34222 10.6846Z" fill="#F28C3E"/>
<path d="M3.34222 21.5137C4.53359 21.5137 5.49938 20.5632 5.49938 19.3907C5.49938 18.2181 4.53359 17.2676 3.34222 17.2676C2.15085 17.2676 1.18506 18.2181 1.18506 19.3907C1.18506 20.5632 2.15085 21.5137 3.34222 21.5137Z" fill="#F28C3E"/>
<path d="M13.2512 5.21782C14.4272 5.02995 15.2258 3.93939 15.0349 2.782C14.844 1.62461 13.7359 0.838657 12.56 1.02653C11.384 1.2144 10.5854 2.30495 10.7763 3.46234C10.9672 4.61974 12.0752 5.40569 13.2512 5.21782Z" fill="#F28C3E"/>
<path d="M22.9987 10.6288C24.1582 10.3595 24.8763 9.21599 24.6027 8.07481C24.329 6.93362 23.1672 6.22685 22.0077 6.4962C20.8482 6.76554 20.1301 7.909 20.4037 9.05019C20.6774 10.1914 21.8392 10.8981 22.9987 10.6288Z" fill="#F28C3E"/>
<path d="M22.9982 21.4584C24.1577 21.189 24.8759 20.0456 24.6022 18.9044C24.3285 17.7632 23.1667 17.0564 22.0072 17.3258C20.8477 17.5951 20.1296 18.7386 20.4032 19.8798C20.6769 21.021 21.8387 21.7277 22.9982 21.4584Z" fill="#F28C3E"/>
<path d="M14.8988 25.6893C15.3547 24.6061 14.8321 23.3641 13.7314 22.9154C12.6307 22.4667 11.3688 22.9811 10.9129 24.0644C10.457 25.1477 10.9797 26.3896 12.0804 26.8383C13.181 27.2871 14.4429 26.7726 14.8988 25.6893Z" fill="#F28C3E"/>
</g>
<path d="M37.7206 20.626C36.8446 20.626 36.0526 20.476 35.3446 20.176C34.6486 19.876 34.0966 19.444 33.6886 18.88C33.2806 18.316 33.0706 17.65 33.0586 16.882H35.7586C35.7946 17.398 35.9746 17.806 36.2986 18.106C36.6346 18.406 37.0906 18.556 37.6666 18.556C38.2546 18.556 38.7166 18.418 39.0526 18.142C39.3886 17.854 39.5566 17.482 39.5566 17.026C39.5566 16.654 39.4426 16.348 39.2146 16.108C38.9866 15.868 38.6986 15.682 38.3506 15.55C38.0146 15.406 37.5466 15.25 36.9466 15.082C36.1306 14.842 35.4646 14.608 34.9486 14.38C34.4446 14.14 34.0066 13.786 33.6346 13.318C33.2746 12.838 33.0946 12.202 33.0946 11.41C33.0946 10.666 33.2806 10.018 33.6526 9.466C34.0246 8.914 34.5466 8.494 35.2186 8.206C35.8906 7.906 36.6586 7.756 37.5226 7.756C38.8186 7.756 39.8686 8.074 40.6726 8.71C41.4886 9.334 41.9386 10.21 42.0226 11.338H39.2506C39.2266 10.906 39.0406 10.552 38.6926 10.276C38.3566 9.988 37.9066 9.844 37.3426 9.844C36.8506 9.844 36.4546 9.97 36.1546 10.222C35.8666 10.474 35.7226 10.84 35.7226 11.32C35.7226 11.656 35.8306 11.938 36.0466 12.166C36.2746 12.382 36.5506 12.562 36.8746 12.706C37.2106 12.838 37.6786 12.994 38.2786 13.174C39.0946 13.414 39.7606 13.654 40.2766 13.894C40.7926 14.134 41.2366 14.494 41.6086 14.974C41.9806 15.454 42.1666 16.084 42.1666 16.864C42.1666 17.536 41.9926 18.16 41.6446 18.736C41.2966 19.312 40.7866 19.774 40.1146 20.122C39.4426 20.458 38.6446 20.626 37.7206 20.626ZM56.7354 10.384C57.9594 10.384 58.9434 10.762 59.6874 11.518C60.4434 12.262 60.8214 13.306 60.8214 14.65V20.5H58.3014V14.992C58.3014 14.212 58.1034 13.618 57.7074 13.21C57.3114 12.79 56.7714 12.58 56.0874 12.58C55.4034 12.58 54.8574 12.79 54.4494 13.21C54.0534 13.618 53.8554 14.212 53.8554 14.992V20.5H51.3354V14.992C51.3354 14.212 51.1374 13.618 50.7414 13.21C50.3454 12.79 49.8054 12.58 49.1214 12.58C48.4254 12.58 47.8734 12.79 47.4654 13.21C47.0694 13.618 46.8714 14.212 46.8714 14.992V20.5H44.3514V10.528H46.8714V11.734C47.1954 11.314 47.6094 10.984 48.1134 10.744C48.6294 10.504 49.1934 10.384 49.8054 10.384C50.5854 10.384 51.2814 10.552 51.8934 10.888C52.5054 11.212 52.9794 11.68 53.3154 12.292C53.6394 11.716 54.1074 11.254 54.7194 10.906C55.3434 10.558 56.0154 10.384 56.7354 10.384ZM62.5647 15.478C62.5647 14.47 62.7627 13.576 63.1587 12.796C63.5667 12.016 64.1127 11.416 64.7967 10.996C65.4927 10.576 66.2667 10.366 67.1187 10.366C67.8627 10.366 68.5107 10.516 69.0627 10.816C69.6267 11.116 70.0767 11.494 70.4127 11.95V10.528H72.9507V20.5H70.4127V19.042C70.0887 19.51 69.6387 19.9 69.0627 20.212C68.4987 20.512 67.8447 20.662 67.1007 20.662C66.2607 20.662 65.4927 20.446 64.7967 20.014C64.1127 19.582 63.5667 18.976 63.1587 18.196C62.7627 17.404 62.5647 16.498 62.5647 15.478ZM70.4127 15.514C70.4127 14.902 70.2927 14.38 70.0527 13.948C69.8127 13.504 69.4887 13.168 69.0807 12.94C68.6727 12.7 68.2347 12.58 67.7667 12.58C67.2987 12.58 66.8667 12.694 66.4707 12.922C66.0747 13.15 65.7507 13.486 65.4987 13.93C65.2587 14.362 65.1387 14.878 65.1387 15.478C65.1387 16.078 65.2587 16.606 65.4987 17.062C65.7507 17.506 66.0747 17.848 66.4707 18.088C66.8787 18.328 67.3107 18.448 67.7667 18.448C68.2347 18.448 68.6727 18.334 69.0807 18.106C69.4887 17.866 69.8127 17.53 70.0527 17.098C70.2927 16.654 70.4127 16.126 70.4127 15.514ZM77.9319 12.076C78.2559 11.548 78.6759 11.134 79.1919 10.834C79.7199 10.534 80.3199 10.384 80.9919 10.384V13.03H80.3259C79.5339 13.03 78.9339 13.216 78.5259 13.588C78.1299 13.96 77.9319 14.608 77.9319 15.532V20.5H75.4119V10.528H77.9319V12.076ZM85.6233 12.598V17.422C85.6233 17.758 85.7013 18.004 85.8573 18.16C86.0253 18.304 86.3013 18.376 86.6853 18.376H87.8553V20.5H86.2713C84.1473 20.5 83.0853 19.468 83.0853 17.404V12.598H81.8973V10.528H83.0853V8.062H85.6233V10.528H87.8553V12.598H85.6233ZM100.09 7.936V20.5H97.5698V15.154H92.1878V20.5H89.6678V7.936H92.1878V13.102H97.5698V7.936H100.09ZM109.05 20.5L106.278 15.604H105.09V20.5H102.57V7.936H107.286C108.258 7.936 109.086 8.11 109.77 8.458C110.454 8.794 110.964 9.256 111.3 9.844C111.648 10.42 111.822 11.068 111.822 11.788C111.822 12.616 111.582 13.366 111.102 14.038C110.622 14.698 109.908 15.154 108.96 15.406L111.966 20.5H109.05ZM105.09 13.714H107.196C107.88 13.714 108.39 13.552 108.726 13.228C109.062 12.892 109.23 12.43 109.23 11.842C109.23 11.266 109.062 10.822 108.726 10.51C108.39 10.186 107.88 10.024 107.196 10.024H105.09V13.714Z" fill="#281808"/>
<defs>
<clipPath id="clip0_530_280">
<rect width="26" height="26" fill="white" transform="translate(0 1)"/>
</clipPath>
</defs>
</svg>
